<svg width="150" height="60" viewBox="0 0 150 60" fill="none" xmlns="http://www.w3.org/2000/svg">
<g id="Logo">
<g id="Grupo 313">
<g id="Grupo 312">
<path id="Caminho 186" d="M21.5142 31.0544C21.2514 29.0367 20.991 26.9822 20.715 24.9302C19.9559 19.2879 19.1792 13.6483 18.4382 8.00419C18.3177 7.08533 18.0333 6.85641 17.2099 7.26282C12.6807 9.49723 8.14584 11.7191 3.58857 13.887C2.73267 14.2941 2.58538 14.7146 2.83547 15.671C4.67057 22.663 6.44052 29.6745 8.23289 36.6792C10.0711 43.864 11.9101 51.0484 13.7497 58.2327C13.7948 58.409 13.8258 58.5893 13.8723 58.8124C13.1595 59.2179 12.804 59.017 12.5802 58.2102C10.0263 48.997 7.45983 39.7872 4.88074 30.5808C3.37455 25.1919 1.86287 19.8049 0.345707 14.4198C-0.235227 12.3642 -0.232251 12.2968 1.52771 11.2994C7.41586 7.96174 13.3056 4.62785 19.1969 1.29776C20.3612 0.639615 20.8421 0.736682 21.6411 1.78404C26.2085 7.77041 30.7773 13.7553 35.3475 19.7387C35.8433 20.3847 35.972 20.962 35.7529 21.7773C35.2762 23.5518 34.91 25.3603 34.449 27.3722L33.0855 27.7694C33.2101 27.6365 33.2708 27.3267 33.3845 26.9007C33.8136 25.2923 34.0745 23.6324 34.4781 22.0144C34.6546 21.3065 34.5014 20.8403 34.0598 20.3143C31.0524 16.7324 28.0733 13.1233 25.0843 9.52286C24.7609 9.13421 24.4528 8.72425 24.0953 8.3689C23.9409 8.21553 23.6367 8.06199 23.4824 8.12782C23.3223 8.1959 23.2249 8.51908 23.1671 8.74987C23.1359 8.97114 23.1309 9.1957 23.152 9.41831C23.1492 16.0237 23.1466 22.6292 23.144 29.2346C23.144 29.6367 23.144 30.0388 23.144 30.5732L21.5142 31.0544Z" fill="black"/>
<path id="Caminho 187" d="M34.501 27.3307C36.4729 26.7696 38.2547 26.2998 40.0156 25.7522C42.0668 25.1144 42.1011 25.0862 43.4534 26.8704C46.9479 31.4816 50.42 36.112 53.9333 40.7065C54.4997 41.4471 54.5839 42.0333 54.1259 42.8925C51.4463 47.9119 48.8192 52.963 46.179 58.0056C45.8813 58.5736 45.599 59.1382 44.7417 58.6806C45.7545 56.448 46.7517 54.2465 47.7516 52.0463C49.1527 48.9623 50.5379 45.869 51.9747 42.8038C52.2744 42.1646 52.2469 41.7587 51.771 41.245C49.2417 38.513 46.7461 35.7452 44.2322 32.997C43.4054 32.0933 43.1609 32.1706 42.6885 33.4811C40.7596 38.8333 38.833 44.1866 36.909 49.5411C35.8949 52.3564 34.8558 55.1617 33.8663 57.9867C33.6165 58.6998 33.3006 59.0739 32.4447 58.7227C33.6239 52.7099 34.7971 46.7417 35.9637 40.7718C36.569 37.6746 37.1675 34.5762 37.7593 31.4765C37.9368 30.5485 37.6528 30.2461 36.7403 30.4409C34.2803 30.9669 31.8254 31.5193 29.3682 32.0598C27.3891 32.4952 25.4152 32.9725 23.4247 33.3432C22.4863 33.5179 22.1793 33.9544 22.1842 34.9743C22.2192 42.4394 22.2182 49.9049 22.1812 57.3706C22.1793 57.8717 22.5692 58.703 21.6957 58.7747C21.5351 58.7878 21.1625 57.8693 21.1318 57.3641C20.6693 49.6975 20.2474 42.0278 19.8155 34.3597C19.8092 34.2475 19.7979 34.1364 19.7871 34.0251C19.5529 31.8075 19.5528 31.8075 21.566 31.0129L34.501 27.3307Z" fill="#3E5481"/>
</g>
<path id="Caminho 188" d="M81 11.569V36.1123H77.0237V14.7263C75.5866 21.9354 74.1806 28.9901 72.7588 36.1227H70.1944C68.7875 28.9236 67.3754 21.6982 65.9581 14.4465L65.8427 14.4785C65.9495 21.6643 66.0565 28.8502 66.1645 36.1196H62V11.5696C64.0292 11.5696 66.0095 11.5328 67.9855 11.6148C68.24 11.6254 68.6186 12.217 68.6941 12.5986C69.6776 17.5713 70.6164 22.5548 71.599 27.703C71.7269 26.777 71.8087 25.9627 71.9548 25.1632C72.7349 20.8818 73.5197 16.6008 74.3447 12.3304C74.4016 12.0358 74.7941 11.61 75.0395 11.6025C76.9843 11.5424 78.931 11.569 81 11.569Z" fill="black"/>
<path id="Caminho 189" d="M138.444 11.6416H143V36.1108C141.591 36.1108 140.22 36.1545 138.855 36.074C138.58 36.0577 138.208 35.6185 138.088 35.2938C136.077 29.8737 134.1 24.4407 132.114 19.0112C132.059 18.903 131.998 18.7984 131.93 18.698C132.124 24.5383 132.313 30.2448 132.506 36.0359H128V11.5734C129.401 11.5734 130.739 11.5293 132.069 11.6098C132.341 11.6263 132.707 12.0634 132.824 12.3851C134.886 18.0293 136.916 23.6858 138.953 29.3392C139.004 29.4785 139.068 29.6124 139.1 29.6866C138.884 23.7481 138.666 17.7517 138.444 11.6416Z" fill="black"/>
<path id="Caminho 190" d="M112.455 23.4893C114.656 24.1952 115.2 25.9296 115.232 28.0685C115.258 29.8296 115.324 31.5934 115.462 33.3478C115.534 34.2415 115.801 35.1179 116 36.0938H111.27C111.185 34.5111 111.105 32.9153 111.012 31.3204C110.939 30.0634 110.883 28.8035 110.759 27.5521C110.664 26.5974 110.09 26.0077 109.231 25.8895C107.946 25.7131 106.649 25.6375 105.242 25.5086V36.1227H101V11.5664C101.913 11.5664 102.789 11.5533 103.665 11.5691C105.901 11.6091 108.142 11.5786 110.372 11.7279C114.618 12.0119 115.858 15.2512 115.358 19.1132C115.105 21.069 114.416 22.7348 112.455 23.4893ZM105.273 21.9862C106.305 21.9862 107.225 22.0018 108.144 21.9827C109.784 21.9489 110.534 21.2901 110.922 19.5807C111.373 17.5966 110.725 15.616 109.353 15.3951C108.022 15.1808 106.638 15.3486 105.273 15.3486V21.9862Z" fill="black"/>
<path id="Caminho 191" d="M98.9914 36.0449H95.5774C95.3807 36.0448 95.1901 35.9657 95.0381 35.821C94.8861 35.6763 94.782 35.4749 94.7437 35.2512C94.4446 33.5059 94.1446 31.756 93.8383 29.9689H89.2435C88.9425 31.7428 88.6206 33.4854 88.3627 35.2407C88.2665 35.8969 88.0469 36.1449 87.4654 36.1211C86.3516 36.0755 85.2353 36.1079 84 36.1079C84.4087 34.0661 84.7854 32.1471 85.1776 30.2324C86.3399 24.5587 87.5142 18.8883 88.6702 13.2127C89.0027 11.5802 88.9814 11.5743 90.4387 11.5737C91.5257 11.5737 92.6147 11.5321 93.6983 11.6015C93.9606 11.6184 94.3796 11.9534 94.4328 12.2205C95.9749 19.9841 97.4929 27.7542 98.987 35.5309C99.0027 35.7016 99.0042 35.8738 98.9914 36.0449ZM91.6098 15.1613C91.0937 18.5866 90.5251 22.3601 89.9436 26.2193H93.1567C92.6162 22.3559 92.0891 18.5834 91.6098 15.1613Z" fill="black"/>
<path id="Caminho 192" d="M124 36.1227H120V11.5613H124V36.1227Z" fill="black"/>
<path id="Caminho 193" d="M150 36.1227H147V11.5613H150V23.842V36.1227Z" fill="black"/>
</g>
<g id="Grupo 314">
<path id="Caminho 194" d="M64.8658 46.361C64.8658 46.4171 64.8646 46.4667 64.862 46.5082C64.8602 46.5435 64.8556 46.5786 64.8483 46.6131C64.8427 46.6388 64.835 46.6638 64.8252 46.6879C64.8081 46.7222 64.7872 46.7541 64.763 46.7829C64.7136 46.8409 64.6582 46.8928 64.598 46.9376C64.516 47.0021 64.4279 47.0573 64.3353 47.1026C64.2337 47.1524 64.1277 47.1916 64.019 47.2197C63.9035 47.2501 63.7848 47.2653 63.6658 47.2649C63.4344 47.2698 63.2054 47.2149 62.9981 47.1048C62.8013 46.9956 62.6336 46.8347 62.5111 46.6373C62.37 46.407 62.2687 46.1516 62.2121 45.8832C62.1394 45.545 62.1049 45.1987 62.1093 44.8517C62.1027 44.4671 62.1451 44.0833 62.2354 43.7108C62.3032 43.4293 62.4204 43.1641 62.5808 42.9293C62.7158 42.7358 62.893 42.5806 63.0971 42.4772C63.2985 42.3782 63.5178 42.3279 63.7395 42.3298C63.8487 42.3295 63.9575 42.343 64.0637 42.3698C64.1631 42.3945 64.2599 42.4296 64.3528 42.4746C64.4361 42.5148 64.5148 42.565 64.5875 42.6242C64.6419 42.6669 64.692 42.7155 64.7371 42.7692C64.7611 42.7986 64.7826 42.8304 64.8012 42.864C64.8137 42.8902 64.8235 42.9179 64.8303 42.9465C64.8384 42.9817 64.8437 43.0176 64.8459 43.0538C64.8483 43.0938 64.8497 43.1438 64.8497 43.2034C64.8552 43.2957 64.8433 43.3883 64.8147 43.4756C64.7914 43.5272 64.7621 43.553 64.7294 43.553C64.6765 43.545 64.6285 43.5155 64.5954 43.4707C64.5346 43.4059 64.4703 43.345 64.4028 43.2883C64.3161 43.2157 64.2216 43.1545 64.1213 43.1058C63.9985 43.0482 63.8654 43.0201 63.7313 43.0235C63.5849 43.0205 63.4406 43.0619 63.3153 43.1427C63.1899 43.2236 63.0885 43.3406 63.0228 43.4804C62.8366 43.893 62.7518 44.3494 62.7764 44.8066C62.7735 45.0622 62.7949 45.3174 62.8403 45.5684C62.874 45.7607 62.9377 45.9456 63.0286 46.1155C63.0992 46.2515 63.2036 46.3641 63.3303 46.4407C63.457 46.5174 63.6011 46.5552 63.7467 46.5499C63.8809 46.5531 64.0138 46.5223 64.1348 46.4601C64.2378 46.406 64.3348 46.3397 64.4241 46.2626C64.5059 46.1911 64.5744 46.1262 64.6299 46.0679C64.6854 46.0098 64.7289 45.9804 64.7599 45.9804C64.7685 45.9803 64.7771 45.9821 64.785 45.9855C64.793 45.989 64.8003 45.9941 64.8064 46.0006C64.8224 46.0199 64.8337 46.043 64.8394 46.0679C64.8497 46.1071 64.8562 46.1473 64.8588 46.1878C64.8639 46.237 64.8658 46.2943 64.8658 46.361Z" fill="black"/>
<path id="Caminho 195" d="M68.8991 44.7476C68.902 45.0884 68.8642 45.4283 68.7865 45.759C68.7212 46.0443 68.6074 46.3143 68.4507 46.5557C68.3062 46.7749 68.1145 46.9539 67.8919 47.0777C67.6506 47.2069 67.3834 47.2711 67.1136 47.2648C66.8548 47.2711 66.598 47.2148 66.3626 47.0998C66.1497 46.9904 65.9662 46.8255 65.8289 46.6203C65.6778 46.3897 65.5697 46.1302 65.5105 45.8559C65.4369 45.5221 65.4016 45.1799 65.4054 44.837C65.4026 44.4962 65.4397 44.1564 65.5159 43.8255C65.5802 43.5402 65.6934 43.2701 65.8498 43.0288C65.9937 42.8104 66.1848 42.6322 66.4069 42.5094C66.6491 42.3814 66.9168 42.318 67.1869 42.3246C67.4458 42.3182 67.7026 42.3746 67.9381 42.4894C68.1509 42.5988 68.3344 42.7637 68.4718 42.9689C68.623 43.1997 68.7316 43.4591 68.7919 43.7333C68.8668 44.0653 68.9028 44.406 68.8991 44.7476ZM68.2353 44.8025C68.2363 44.5716 68.2188 44.3409 68.1828 44.1132C68.1527 43.9147 68.0936 43.7225 68.0076 43.5437C67.9315 43.3861 67.8181 43.2527 67.6786 43.1567C67.5229 43.0567 67.3433 43.0072 67.1617 43.0142C66.9898 43.0095 66.8199 43.0547 66.6701 43.1451C66.53 43.235 66.4134 43.3613 66.3314 43.5122C66.2368 43.6863 66.1699 43.8759 66.1335 44.0733C66.0889 44.3067 66.0673 44.5445 66.069 44.7827C66.0679 45.0153 66.0855 45.2476 66.1216 45.477C66.1511 45.6749 66.2106 45.8664 66.2979 46.0438C66.3756 46.2002 66.4895 46.3327 66.6288 46.4286C66.7846 46.5284 66.9642 46.5779 67.1458 46.5709C67.3173 46.5754 67.4868 46.5302 67.6362 46.44C67.7768 46.3512 67.8941 46.2258 67.977 46.0754C68.0717 45.9023 68.1379 45.7131 68.1728 45.516C68.2161 45.2811 68.237 45.042 68.2351 44.8025H68.2353Z" fill="black"/>
<path id="Caminho 196" d="M72.8502 47.0452C72.851 47.0687 72.8456 47.0921 72.8346 47.1125C72.8222 47.133 72.8048 47.1495 72.7842 47.16C72.7536 47.1757 72.7208 47.1859 72.6871 47.19C72.6357 47.1974 72.5838 47.2007 72.532 47.2C72.4787 47.2008 72.4255 47.1975 72.3728 47.19C72.3391 47.1858 72.3063 47.1757 72.2757 47.16C72.2551 47.1495 72.2377 47.133 72.2253 47.1125C72.2144 47.092 72.209 47.0687 72.2097 47.0452V44.413C72.2137 44.2053 72.1981 43.9978 72.1631 43.7935C72.1372 43.6522 72.0914 43.5158 72.0274 43.389C71.9732 43.2821 71.8935 43.1924 71.7964 43.129C71.6967 43.0677 71.5833 43.0367 71.4683 43.0393C71.2883 43.0478 71.1173 43.1259 70.9871 43.259C70.7925 43.4485 70.6227 43.6653 70.4825 43.9033V47.0454C70.4832 47.0689 70.4778 47.0922 70.4669 47.1127C70.4545 47.1332 70.4371 47.1497 70.4165 47.1602C70.3859 47.1759 70.3531 47.186 70.3194 47.1901C70.2667 47.1976 70.2135 47.201 70.1602 47.2002C70.1083 47.2009 70.0565 47.1976 70.0051 47.1901C69.9708 47.1858 69.9374 47.1757 69.9061 47.1602C69.885 47.1505 69.8672 47.1338 69.8555 47.1127C69.8459 47.0918 69.8412 47.0687 69.842 47.0454V42.5498C69.8414 42.5267 69.8453 42.5037 69.8536 42.4823C69.8641 42.4611 69.8803 42.4437 69.9001 42.4323C69.9277 42.4159 69.9581 42.4058 69.9895 42.4024C70.0843 42.3924 70.1799 42.3924 70.2748 42.4024C70.3057 42.4051 70.3357 42.4153 70.3623 42.4323C70.3813 42.4442 70.3967 42.4615 70.407 42.4823C70.4173 42.503 70.4219 42.5264 70.4205 42.5498V43.1442C70.5794 42.9004 70.7787 42.6896 71.0086 42.5223C71.1841 42.3973 71.3896 42.3288 71.6006 42.325C71.7952 42.3151 71.9887 42.362 72.1603 42.4605C72.3319 42.559 72.4752 42.7056 72.5749 42.8844C72.6783 43.0683 72.7501 43.2704 72.787 43.4812C72.833 43.7523 72.8544 44.0275 72.8509 44.303L72.8502 47.0452Z" fill="black"/>
<path id="Caminho 197" d="M76.2118 45.8211C76.2151 46.0307 76.1816 46.2391 76.1128 46.4355C76.0517 46.6074 75.9555 46.7627 75.8314 46.8902C75.7067 47.0152 75.5585 47.1105 75.3967 47.1698C75.218 47.2349 75.0303 47.267 74.8415 47.2648C74.7223 47.2653 74.6033 47.2527 74.4865 47.2274C74.3832 47.2053 74.2818 47.1736 74.1837 47.1326C74.1046 47.0999 74.0284 47.0598 73.956 47.0127C73.9064 46.9817 73.8608 46.9439 73.8203 46.9004C73.7886 46.8604 73.7671 46.8122 73.7581 46.7606C73.7434 46.68 73.737 46.598 73.7388 46.5159C73.7383 46.4625 73.7408 46.4091 73.7464 46.356C73.7502 46.3206 73.7567 46.2856 73.7658 46.2513C73.7711 46.2289 73.7826 46.2088 73.7989 46.1937C73.8128 46.1823 73.8299 46.1761 73.8474 46.1763C73.8946 46.1856 73.9383 46.209 73.9735 46.2438C74.0292 46.2887 74.0978 46.3378 74.1793 46.3912C74.2712 46.4498 74.368 46.4991 74.4685 46.5384C74.5917 46.5856 74.7219 46.6085 74.8527 46.6059C74.9526 46.6072 75.0521 46.5921 75.1477 46.561C75.2314 46.5334 75.3093 46.4884 75.3767 46.4286C75.4426 46.3685 75.4939 46.2923 75.5261 46.2064C75.5632 46.1046 75.581 45.996 75.5787 45.8868C75.5822 45.7747 75.556 45.6638 75.503 45.5669C75.4503 45.4778 75.3826 45.3998 75.3032 45.3371C75.2158 45.2678 75.1219 45.2084 75.023 45.1598C74.9194 45.1082 74.8127 45.0541 74.7028 44.9976C74.5919 44.9404 74.4843 44.8762 74.3805 44.8052C74.2752 44.7332 74.1804 44.645 74.0993 44.5433C74.0128 44.4336 73.9451 44.3084 73.8993 44.1736C73.8454 44.0083 73.8198 43.834 73.8236 43.6591C73.823 43.4865 73.8499 43.3151 73.9031 43.1522C73.954 42.9945 74.0354 42.8498 74.1418 42.7277C74.2539 42.6017 74.3895 42.5022 74.5397 42.4355C74.7164 42.3586 74.906 42.3212 75.0967 42.3256C75.1908 42.3256 75.2847 42.3356 75.3769 42.3555C75.4627 42.3733 75.547 42.3983 75.6291 42.4303C75.6961 42.4561 75.7606 42.4887 75.8218 42.5277C75.8644 42.5546 75.9047 42.5855 75.9421 42.6201C75.964 42.6398 75.9824 42.6635 75.9964 42.6901C76.0058 42.7114 76.0124 42.7341 76.0158 42.7574C76.0197 42.7824 76.0235 42.8132 76.0274 42.8498C76.0317 42.8946 76.0336 42.9396 76.0333 42.9847C76.0333 43.0408 76.0312 43.0903 76.0274 43.132C76.0248 43.1669 76.0183 43.2013 76.0081 43.2345C76.0018 43.2563 75.9904 43.2761 75.975 43.2919C75.9632 43.3031 75.948 43.3093 75.9323 43.3093C75.8943 43.3021 75.8592 43.283 75.8314 43.2543C75.7772 43.2108 75.7201 43.1716 75.6606 43.1369C75.5815 43.091 75.4991 43.0517 75.4142 43.0194C75.31 42.981 75.2003 42.9624 75.09 42.9645C74.9925 42.9626 74.8953 42.9786 74.8028 43.0118C74.7261 43.0394 74.6563 43.0855 74.5989 43.1466C74.5454 43.2058 74.5044 43.2765 74.4786 43.354C74.451 43.4374 74.4372 43.5252 74.438 43.6136C74.4342 43.7283 74.4611 43.8418 74.5156 43.9407C74.5687 44.0309 74.6371 44.1097 74.7173 44.173C74.8057 44.2433 74.9007 44.3036 75.0007 44.353C75.1068 44.4064 75.2149 44.4614 75.3249 44.5177C75.4349 44.5741 75.5436 44.6374 75.651 44.7076C75.7574 44.7768 75.8535 44.8627 75.9361 44.9623C76.0225 45.0684 76.0902 45.1902 76.1361 45.3219C76.1897 45.482 76.2154 45.6512 76.2118 45.8211Z" fill="black"/>
<path id="Caminho 198" d="M78.8552 46.7154C78.8566 46.7924 78.8514 46.8694 78.8396 46.9453C78.8338 46.9904 78.8178 47.0332 78.793 47.0702C78.7668 47.1014 78.7352 47.1268 78.6999 47.1451C78.6549 47.1699 78.6074 47.1893 78.5584 47.2027C78.5058 47.2176 78.4489 47.23 78.3894 47.2401C78.172 47.2751 77.9498 47.2484 77.7452 47.1626C77.617 47.1021 77.5068 47.005 77.4268 46.8821C77.3368 46.7388 77.2753 46.5773 77.2462 46.4076C77.206 46.1846 77.1872 45.9578 77.19 45.7308V43.1043H76.701C76.6621 43.1043 76.631 43.0776 76.6077 43.0243C76.5799 42.941 76.568 42.8527 76.5726 42.7645C76.572 42.7111 76.5752 42.6577 76.5823 42.6048C76.5872 42.5682 76.5957 42.5322 76.6075 42.4974C76.6149 42.4734 76.6292 42.4524 76.6483 42.4374C76.6651 42.4257 76.6847 42.4196 76.7047 42.4198H77.1898V41.3511C77.1896 41.3286 77.1943 41.3063 77.2035 41.286C77.2149 41.2635 77.2325 41.2452 77.2539 41.2337C77.2848 41.2165 77.3183 41.2055 77.3529 41.2011C77.4044 41.1938 77.4563 41.1904 77.5082 41.191C77.5614 41.1904 77.6145 41.1937 77.6673 41.2011C77.7012 41.2053 77.7342 41.2163 77.7643 41.2337C77.7852 41.2461 77.8026 41.2642 77.8149 41.286C77.8251 41.306 77.8304 41.3284 77.8303 41.3511V42.4198H78.727C78.7464 42.4195 78.7654 42.4256 78.7813 42.4374C78.7996 42.4532 78.8137 42.4739 78.8219 42.4974C78.8351 42.5317 78.8437 42.5679 78.8473 42.6048C78.8529 42.6578 78.8555 42.7111 78.855 42.7645C78.8599 42.8527 78.848 42.9411 78.82 43.0243C78.7967 43.0775 78.7657 43.1042 78.727 43.1043H77.8312V45.6116C77.8195 45.851 77.8559 46.0903 77.9378 46.3135C77.9713 46.39 78.0259 46.4537 78.0942 46.4961C78.1625 46.5385 78.2414 46.5575 78.3202 46.5507C78.374 46.5515 78.4276 46.5439 78.4794 46.5282C78.5216 46.5149 78.5631 46.499 78.6037 46.4807C78.6398 46.4641 78.6708 46.4484 78.6967 46.4332C78.718 46.4197 78.742 46.412 78.7668 46.4108C78.78 46.4109 78.7929 46.4153 78.8037 46.4233C78.8175 46.4354 78.8271 46.4522 78.8309 46.4708C78.8388 46.5019 78.8446 46.5336 78.8484 46.5656C78.8537 46.6154 78.856 46.6654 78.8552 46.7154Z" fill="black"/>
<path id="Caminho 199" d="M81.7431 42.8446C81.7431 42.9179 81.7417 42.9794 81.7389 43.0292C81.738 43.0688 81.7329 43.1082 81.7235 43.1466C81.718 43.1702 81.7081 43.1923 81.6945 43.2117C81.6885 43.2192 81.6811 43.2251 81.6726 43.229C81.6642 43.2328 81.6551 43.2346 81.6459 43.2341C81.6195 43.2325 81.5937 43.2249 81.5703 43.2117C81.5405 43.1967 81.5067 43.1818 81.4694 43.1668C81.4321 43.1518 81.3897 43.1375 81.3433 43.1242C81.2938 43.1105 81.2429 43.1039 81.1918 43.1043C81.1256 43.1046 81.0604 43.1217 81.0016 43.1541C80.9281 43.1969 80.8618 43.2527 80.8056 43.3191C80.7246 43.4128 80.6525 43.5149 80.5902 43.6237C80.5151 43.7504 80.4323 43.9052 80.3417 44.0881V47.0452C80.3424 47.0687 80.337 47.0921 80.3261 47.1125C80.3138 47.1331 80.2963 47.1495 80.2757 47.16C80.2451 47.1757 80.2124 47.1858 80.1788 47.19C80.126 47.1975 80.0728 47.2008 80.0196 47.2001C79.9677 47.2008 79.9157 47.1974 79.8643 47.19C79.83 47.1856 79.7966 47.1755 79.7653 47.16C79.7442 47.1503 79.7265 47.1337 79.7149 47.1125C79.7052 47.0916 79.7006 47.0685 79.7014 47.0452V42.5498C79.7007 42.5267 79.7046 42.5037 79.7129 42.4823C79.7234 42.461 79.7396 42.4436 79.7595 42.4324C79.787 42.416 79.8173 42.4058 79.8487 42.4024C79.8964 42.3968 79.9444 42.3943 79.9925 42.3949C80.0398 42.3944 80.0871 42.3969 80.1341 42.4024C80.1651 42.405 80.1951 42.4153 80.2217 42.4324C80.2406 42.4443 80.2561 42.4616 80.2664 42.4823C80.2767 42.503 80.2814 42.5264 80.28 42.5498V43.2044C80.3595 43.0508 80.4496 42.9038 80.5497 42.7647C80.62 42.6667 80.7001 42.5772 80.7885 42.4976C80.8542 42.4381 80.9299 42.3923 81.0116 42.3628C81.0837 42.3381 81.159 42.3254 81.2347 42.3254C81.2731 42.3256 81.3113 42.3281 81.3494 42.3329C81.3946 42.3384 81.4392 42.3476 81.4831 42.3603C81.526 42.3723 81.5682 42.3873 81.6093 42.4052C81.6385 42.4165 81.6656 42.4334 81.689 42.4552C81.7023 42.4686 81.7129 42.4848 81.7202 42.5027C81.7262 42.5214 81.7307 42.5406 81.7335 42.5601C81.7384 42.594 81.741 42.6281 81.7414 42.6624C81.7424 42.7073 81.7431 42.7679 81.7431 42.8446Z" fill="black"/>
<path id="Caminho 200" d="M85.4654 47.0452C85.466 47.0685 85.4614 47.0916 85.4517 47.1126C85.4405 47.1333 85.4236 47.1499 85.4032 47.1601C85.3746 47.1752 85.3438 47.1853 85.3122 47.19C85.2665 47.1973 85.2204 47.2007 85.1743 47.2001C85.1256 47.2009 85.0768 47.1975 85.0286 47.19C84.9975 47.1856 84.9673 47.1755 84.9395 47.1601C84.9201 47.1499 84.9044 47.1332 84.8948 47.1126C84.8864 47.0913 84.8824 47.0683 84.8831 47.0452V46.4509C84.723 46.6936 84.5231 46.9035 84.293 47.0703C84.1178 47.194 83.9132 47.2616 83.7032 47.2652C83.4981 47.2725 83.295 47.2209 83.115 47.1156C82.9565 47.0164 82.8237 46.8764 82.7289 46.7084C82.6258 46.5238 82.5542 46.3212 82.5173 46.1099C82.4708 45.8355 82.4494 45.557 82.4532 45.2782V42.5498C82.4525 42.5265 82.4572 42.5033 82.4669 42.4823C82.4794 42.4605 82.4977 42.4432 82.5194 42.4324C82.551 42.4157 82.5853 42.4056 82.6205 42.4025C82.7237 42.3925 82.8276 42.3925 82.9308 42.4025C82.9653 42.4053 82.999 42.4155 83.0298 42.4324C83.051 42.4439 83.0691 42.4611 83.0823 42.4823C83.0933 42.5028 83.0987 42.5262 83.0979 42.5498V45.1665C83.094 45.3782 83.1089 45.5898 83.1425 45.7985C83.1668 45.9404 83.2127 46.077 83.2783 46.203C83.3339 46.3088 83.4134 46.3981 83.5095 46.4628C83.6077 46.526 83.7207 46.558 83.8354 46.5552C84.0149 46.5468 84.1854 46.4687 84.3147 46.3355C84.509 46.145 84.6793 45.9284 84.8214 45.6911V42.5491C84.8207 42.5257 84.8253 42.5026 84.8349 42.4816C84.8475 42.4598 84.8657 42.4424 84.8874 42.4316C84.9184 42.4151 84.952 42.405 84.9864 42.4017C85.0903 42.3917 85.1949 42.3917 85.2988 42.4017C85.3328 42.4043 85.3658 42.4145 85.3959 42.4316C85.4166 42.444 85.4345 42.4611 85.4484 42.4816C85.4605 42.5017 85.4666 42.5252 85.4659 42.5491L85.4654 47.0452Z" fill="black"/>
<path id="Caminho 201" d="M89.161 46.361C89.161 46.4171 89.1596 46.4667 89.1571 46.5082C89.1553 46.5435 89.1508 46.5786 89.1436 46.6131C89.1379 46.6387 89.1301 46.6638 89.1203 46.6879C89.1031 46.7221 89.0822 46.754 89.058 46.7829C89.0067 46.8426 88.9495 46.8961 88.8874 46.9427C88.7923 47.0159 88.6901 47.0778 88.5825 47.1274C88.4514 47.1885 88.313 47.2298 88.1713 47.25L88.2721 47.5395C88.3176 47.6613 88.3571 47.7855 88.3905 47.9117C88.4141 48.002 88.4265 48.0951 88.4275 48.1888C88.4291 48.3047 88.4106 48.4199 88.373 48.5287C88.3395 48.624 88.2864 48.7102 88.2177 48.7808C88.1484 48.8503 88.0665 48.9038 87.977 48.9381C87.8762 48.9761 87.7698 48.9947 87.6628 48.9931C87.5776 48.9933 87.4924 48.9858 87.4084 48.9706C87.3271 48.9557 87.257 48.9397 87.1982 48.9231C87.1566 48.9129 87.1163 48.8979 87.0779 48.8782C87.0579 48.8671 87.0416 48.8496 87.0313 48.8283C87.0212 48.8046 87.0146 48.7793 87.0118 48.7535C87.0074 48.7137 87.0054 48.6736 87.0059 48.6336C87.0011 48.5634 87.0097 48.4929 87.0313 48.4264C87.0388 48.4098 87.0508 48.396 87.0656 48.3866C87.0805 48.3773 87.0976 48.3728 87.1148 48.3738H87.5961C87.6664 48.3782 87.7357 48.3542 87.7902 48.3065C87.8148 48.2801 87.8337 48.2484 87.8458 48.2135C87.8579 48.1785 87.8628 48.1412 87.8602 48.1041C87.8586 48.0492 87.8508 47.9947 87.8371 47.9418C87.8199 47.8715 87.7992 47.8022 87.7749 47.7344L87.5924 47.215C87.3386 47.1579 87.1079 47.0173 86.9327 46.8131C86.7438 46.5825 86.6082 46.3079 86.5367 46.0113C86.3628 45.256 86.3608 44.4671 86.5309 43.7108C86.5987 43.4293 86.7159 43.1641 86.8763 42.9293C87.0112 42.7358 87.1885 42.5806 87.3926 42.4772C87.5939 42.3782 87.8132 42.3279 88.0348 42.3298C88.144 42.3295 88.2528 42.343 88.359 42.3698C88.4584 42.3944 88.5553 42.4295 88.6482 42.4746C88.7315 42.5148 88.8103 42.565 88.883 42.6242C88.9373 42.667 88.9874 42.7156 89.0326 42.7692C89.0566 42.7986 89.078 42.8303 89.0965 42.864C89.1091 42.8902 89.1189 42.9179 89.1258 42.9465C89.134 42.9817 89.1391 43.0176 89.1412 43.0538C89.1439 43.0938 89.1451 43.1437 89.145 43.2034C89.1505 43.2957 89.1386 43.3883 89.11 43.4756C89.0867 43.5272 89.0575 43.553 89.0247 43.553C88.9718 43.545 88.9238 43.5155 88.8907 43.4707C88.8299 43.4059 88.7656 43.345 88.6981 43.2883C88.6114 43.2157 88.5169 43.1545 88.4166 43.1058C88.2938 43.0482 88.1607 43.0201 88.0266 43.0235C87.8802 43.0205 87.736 43.0619 87.6106 43.1427C87.4852 43.2236 87.3838 43.3406 87.3182 43.4804C87.1319 43.893 87.047 44.3494 87.0716 44.8066C87.0686 45.0622 87.09 45.3175 87.1357 45.5684C87.1693 45.7607 87.233 45.9456 87.3239 46.1155C87.3945 46.2515 87.4989 46.3641 87.6256 46.4407C87.7524 46.5174 87.8964 46.5552 88.042 46.5499C88.1762 46.5531 88.3092 46.5223 88.4301 46.4601C88.5331 46.4059 88.6301 46.3397 88.7194 46.2626C88.8012 46.1911 88.8697 46.1262 88.9251 46.0679C88.9807 46.0098 89.0242 45.9804 89.0552 45.9804C89.0638 45.9803 89.0723 45.982 89.0803 45.9855C89.0883 45.989 89.0955 45.9941 89.1016 46.0006C89.1176 46.0198 89.129 46.043 89.1347 46.0679C89.145 46.1071 89.1515 46.1473 89.1541 46.1878C89.159 46.237 89.161 46.2942 89.161 46.361Z" fill="black"/>
<path id="Caminho 202" d="M93.1939 44.7476C93.1968 45.0885 93.1589 45.4283 93.0813 45.759C93.0159 46.0443 92.9021 46.3143 92.7456 46.5558C92.6009 46.7748 92.4093 46.9538 92.1867 47.0777C91.9453 47.2069 91.6781 47.2711 91.4082 47.2648C91.1494 47.2712 90.8927 47.2148 90.6572 47.0998C90.4444 46.9904 90.2608 46.8255 90.1234 46.6203C89.9724 46.3897 89.8643 46.1301 89.8052 45.8559C89.7317 45.5221 89.6964 45.1799 89.7001 44.837C89.6972 44.4962 89.7344 44.1564 89.8106 43.8255C89.875 43.5403 89.9881 43.2701 90.1444 43.0288C90.2884 42.8104 90.4795 42.6322 90.7015 42.5094C90.9438 42.3815 91.2114 42.3181 91.4816 42.3246C91.7404 42.3183 91.9973 42.3746 92.2328 42.4894C92.4456 42.5988 92.6291 42.7637 92.7664 42.9689C92.9176 43.1997 93.0264 43.4591 93.0867 43.7333C93.1616 44.0654 93.1976 44.4061 93.1939 44.7476ZM92.7398 40.6068C92.7575 40.8929 92.6865 41.1772 92.5377 41.4159C92.4745 41.5064 92.3917 41.5792 92.2964 41.6281C92.201 41.6769 92.096 41.7004 91.9904 41.6964C91.903 41.698 91.8162 41.6818 91.7345 41.6489C91.661 41.6184 91.5918 41.5772 91.5287 41.5266C91.4681 41.478 91.4109 41.4246 91.3578 41.3669C91.3059 41.3101 91.2549 41.2568 91.2045 41.2068C91.1587 41.1608 91.1086 41.1198 91.0551 41.0845C91.0072 41.0533 90.9521 41.0369 90.8959 41.0371C90.8501 41.034 90.8045 41.0463 90.7655 41.0723C90.7265 41.0982 90.6962 41.1366 90.6786 41.1819C90.6327 41.304 90.6115 41.435 90.6164 41.5664C90.6167 41.5875 90.6141 41.6086 90.6087 41.6289C90.6062 41.638 90.6019 41.6465 90.5962 41.6538C90.5905 41.6611 90.5835 41.6672 90.5756 41.6715C90.5525 41.6832 90.5274 41.6899 90.5019 41.6914C90.4697 41.6949 90.4287 41.6964 90.3793 41.6964C90.3441 41.6969 90.309 41.6944 90.2742 41.6889C90.2494 41.6855 90.226 41.6751 90.2062 41.6588C90.1882 41.6417 90.1753 41.6191 90.1695 41.5941C90.1609 41.559 90.157 41.5228 90.1579 41.4866C90.1447 41.2085 90.2124 40.9328 90.3518 40.6975C90.4132 40.602 90.4964 40.5247 90.5936 40.4731C90.6907 40.4215 90.7986 40.3972 90.907 40.4026C91.034 40.399 91.1592 40.4346 91.2678 40.505C91.3654 40.5705 91.4571 40.6456 91.5415 40.7295C91.6232 40.8111 91.6996 40.8869 91.7706 40.9567C91.8319 41.0223 91.9148 41.06 92.0016 41.0616C92.0449 41.063 92.0877 41.0514 92.1251 41.028C92.1625 41.0046 92.1929 40.9704 92.213 40.9294C92.2677 40.8071 92.2924 40.672 92.2848 40.5367C92.2823 40.5165 92.2848 40.496 92.2919 40.4772C92.2991 40.4584 92.3107 40.4419 92.3256 40.4293C92.3816 40.4055 92.4421 40.396 92.5021 40.4016C92.5676 40.3945 92.6336 40.4075 92.6923 40.439C92.7242 40.4643 92.7398 40.5202 92.7398 40.6068ZM92.5296 44.8026C92.5307 44.5716 92.5131 44.3409 92.4771 44.1132C92.4473 43.9148 92.3885 43.7226 92.3028 43.5437C92.2266 43.3862 92.1132 43.2529 91.9737 43.1567C91.818 43.0567 91.6384 43.0072 91.4567 43.0142C91.2848 43.0096 91.1149 43.0548 90.9651 43.1451C90.825 43.2351 90.7085 43.3614 90.6262 43.5123C90.5319 43.6864 90.4651 43.876 90.4285 44.0733C90.3838 44.3068 90.3622 44.5445 90.3639 44.7827C90.3626 45.0153 90.3802 45.2476 90.4164 45.477C90.4458 45.675 90.5053 45.8664 90.5926 46.0439C90.6704 46.2002 90.7843 46.3326 90.9236 46.4286C91.0794 46.5285 91.259 46.5779 91.4406 46.5709C91.6122 46.5754 91.7816 46.5302 91.931 46.44C92.0716 46.3512 92.1888 46.2258 92.2717 46.0755C92.3664 45.9023 92.4326 45.7131 92.4675 45.5161C92.5109 45.2811 92.5319 45.0421 92.5302 44.8026H92.5296Z" fill="black"/>
<path id="Caminho 203" d="M97.1181 44.6026C97.1273 44.7021 97.1 44.8015 97.042 44.88C97.0199 44.9057 96.9932 44.9263 96.9633 44.9405C96.9335 44.9547 96.9012 44.9621 96.8686 44.9623H94.5678C94.5658 45.1886 94.5854 45.4146 94.6263 45.6367C94.6591 45.8202 94.7254 45.9951 94.8216 46.1512C94.9105 46.2926 95.0329 46.4063 95.1764 46.4808C95.3439 46.5623 95.5267 46.6017 95.7107 46.5958C95.8604 46.5978 96.0098 46.5801 96.1554 46.5432C96.2706 46.5135 96.3834 46.4742 96.4929 46.4258C96.5878 46.3825 96.6658 46.3433 96.7267 46.3083C96.7687 46.2802 96.816 46.2623 96.8652 46.2559C96.8829 46.2557 96.9002 46.2619 96.9141 46.2735C96.9296 46.2872 96.9411 46.3054 96.9472 46.3259C96.9564 46.3576 96.9623 46.3903 96.9647 46.4233C96.9686 46.465 96.9705 46.5157 96.9705 46.5758C96.9705 46.6191 96.9693 46.6566 96.9668 46.688C96.9642 46.7196 96.9609 46.7478 96.957 46.7729C96.9535 46.7961 96.947 46.8188 96.9378 46.8402C96.9282 46.8608 96.9164 46.8801 96.9027 46.8978C96.8648 46.9337 96.8224 46.9639 96.7768 46.9876C96.6898 47.037 96.5988 47.078 96.505 47.1101C96.3787 47.1541 96.25 47.19 96.1197 47.2174C95.9656 47.2499 95.8089 47.2658 95.6519 47.265C95.3928 47.2708 95.1355 47.218 94.8969 47.1101C94.6821 47.0078 94.4947 46.8498 94.3517 46.6506C94.1931 46.4226 94.0795 46.1626 94.0178 45.8864C93.938 45.5366 93.9002 45.1773 93.9052 44.8173C93.9013 44.4662 93.9404 44.116 94.0215 43.7758C94.0876 43.4946 94.2015 43.2288 94.3574 42.9916C94.4952 42.7846 94.6767 42.6153 94.8872 42.4973C95.1022 42.3803 95.3407 42.3211 95.582 42.3248C95.8252 42.3171 96.0663 42.3755 96.2826 42.4946C96.4725 42.605 96.6354 42.7616 96.7581 42.9517C96.8878 43.1564 96.9806 43.3851 97.0318 43.6262C97.0915 43.897 97.1209 44.1745 97.1194 44.4528L97.1181 44.6026ZM96.4738 44.358C96.4994 44.0017 96.4209 43.6457 96.2491 43.3391C96.1221 43.1606 95.9393 43.0367 95.734 42.9899C95.5287 42.9431 95.3145 42.9766 95.1303 43.0841C95.0103 43.161 94.9076 43.2651 94.8294 43.389C94.745 43.5245 94.6817 43.6738 94.642 43.8309C94.5973 44.0028 94.5724 44.1797 94.5678 44.358H96.4738Z" fill="black"/>
<path id="Caminho 204" d="M100.286 45.8211C100.289 46.0308 100.255 46.2392 100.187 46.4355C100.125 46.6074 100.029 46.7627 99.9053 46.8902C99.7805 47.0153 99.6323 47.1106 99.4704 47.1698C99.2919 47.2349 99.1042 47.267 98.9156 47.2648C98.7962 47.2653 98.6772 47.2528 98.5602 47.2274C98.4569 47.2053 98.3557 47.1736 98.2576 47.1326C98.1785 47.1 98.1023 47.0599 98.0299 47.0127C97.9803 46.9817 97.9346 46.944 97.894 46.9005C97.8623 46.8604 97.8409 46.8122 97.832 46.7606C97.8172 46.68 97.8107 46.598 97.8126 46.5159C97.812 46.4625 97.8146 46.4091 97.8204 46.356C97.8241 46.3206 97.8306 46.2856 97.8397 46.2513C97.845 46.229 97.8565 46.2089 97.8726 46.1937C97.8866 46.1823 97.9037 46.1762 97.9213 46.1763C97.9684 46.1856 98.0121 46.209 98.0472 46.2438C98.1029 46.2887 98.1715 46.3378 98.253 46.3912C98.345 46.4498 98.4418 46.4991 98.5424 46.5384C98.6655 46.5856 98.7958 46.6085 98.9266 46.6059C99.0265 46.6073 99.126 46.5921 99.2215 46.561C99.3053 46.5334 99.3831 46.4884 99.4504 46.4286C99.5164 46.3685 99.5677 46.2923 99.6 46.2064C99.637 46.1046 99.6548 45.996 99.6526 45.8868C99.6561 45.7747 99.6298 45.6638 99.5769 45.567C99.5241 45.4778 99.4563 45.3998 99.3769 45.3371C99.2895 45.2678 99.1956 45.2084 99.0967 45.1598C98.9931 45.1082 98.8863 45.0541 98.7763 44.9977C98.6655 44.9404 98.5579 44.8762 98.4543 44.8052C98.3489 44.7332 98.254 44.645 98.1728 44.5434C98.0864 44.4336 98.0188 44.3084 97.973 44.1736C97.9191 44.0084 97.8934 43.8341 97.8973 43.6591C97.8967 43.4866 97.9236 43.3152 97.9768 43.1523C98.0278 42.9945 98.1091 42.8499 98.2156 42.7277C98.3277 42.6018 98.4632 42.5022 98.6135 42.4356C98.7901 42.3587 98.9796 42.3213 99.1702 42.3256C99.2643 42.3256 99.3582 42.3356 99.4504 42.3555C99.5363 42.3733 99.6208 42.3983 99.703 42.4303C99.77 42.4561 99.8345 42.4887 99.8956 42.5278C99.9384 42.5546 99.9787 42.5855 100.016 42.6202C100.038 42.6398 100.056 42.6635 100.07 42.6901C100.08 42.7114 100.086 42.7341 100.09 42.7574C100.094 42.7825 100.098 42.8136 100.101 42.8498C100.106 42.8946 100.108 42.9396 100.107 42.9847C100.108 43.0339 100.106 43.0831 100.101 43.1321C100.099 43.1669 100.092 43.2013 100.082 43.2345C100.076 43.2564 100.064 43.2762 100.049 43.292C100.037 43.3031 100.022 43.3093 100.006 43.3094C99.9684 43.3021 99.9332 43.283 99.9055 43.2544C99.8512 43.2109 99.7941 43.1716 99.7345 43.1369C99.6554 43.0911 99.573 43.0519 99.4881 43.0198C99.384 42.9814 99.2743 42.9628 99.1641 42.9649C99.0665 42.963 98.9694 42.979 98.8769 43.0122C98.8001 43.0397 98.7303 43.0859 98.673 43.147C98.6195 43.2062 98.5785 43.2769 98.5527 43.3544C98.5249 43.4378 98.511 43.5257 98.5117 43.6142C98.5079 43.7289 98.5348 43.8424 98.5893 43.9413C98.6426 44.0314 98.711 44.1102 98.7912 44.1736C98.8796 44.2439 98.9746 44.3042 99.0746 44.3535C99.1805 44.407 99.2885 44.4619 99.3986 44.5183C99.5087 44.5747 99.6174 44.6379 99.7247 44.7081C99.8312 44.7774 99.9275 44.8632 100.01 44.9629C100.096 45.069 100.164 45.1908 100.21 45.3225C100.263 45.4824 100.289 45.6514 100.286 45.8211Z" fill="black"/>
</g>
</g>
</svg>
