<svg width="94" height="97" viewBox="0 0 94 97" fill="none" xmlns="http://www.w3.org/2000/svg">
<path d="M38.3429 29.8783C38.0636 27.8799 37.7861 25.8463 37.4937 23.8145C36.6873 18.2267 35.8604 12.6426 35.0727 7.05295C34.9442 6.14357 34.6425 5.91576 33.7672 6.31951C28.9511 8.53278 24.1295 10.7331 19.2837 12.8797C18.373 13.2834 18.2166 13.6983 18.4848 14.6466C20.4365 21.5716 22.3175 28.5133 24.2245 35.4513C26.18 42.5671 28.1373 49.681 30.0909 56.7949C30.1393 56.969 30.171 57.1487 30.2213 57.3691C29.4633 57.771 29.0852 57.571 28.8468 56.7727C26.1297 47.6492 23.3939 38.5313 20.6563 29.4116C19.0546 24.0756 17.453 18.7397 15.8346 13.4075C15.2163 11.3721 15.2201 11.3054 17.0917 10.3182C23.3511 7.01035 29.6141 3.7099 35.8791 0.411302C37.1175 -0.240639 37.6278 -0.14433 38.4789 0.892849C43.3359 6.82144 48.1799 12.7593 53.0536 18.6731C53.5807 19.312 53.7185 19.8843 53.4838 20.6918C52.9773 22.4495 52.588 24.2405 52.0964 26.2333L50.6475 26.626C50.7797 26.4945 50.8449 26.187 50.9659 25.7666C51.4222 24.1738 51.6997 22.5291 52.128 20.9271C52.3161 20.227 52.1522 19.7639 51.6829 19.2435C48.4853 15.6967 45.3174 12.1222 42.1384 8.55686C41.7939 8.16977 41.4661 7.7623 41.088 7.41226C40.9242 7.26038 40.6001 7.10851 40.4362 7.17333C40.2667 7.24001 40.1625 7.56043 40.101 7.79009C40.0451 7.99752 40.0842 8.23089 40.0842 8.45129C40.0805 14.9929 40.0787 21.5346 40.0749 28.0743C40.0749 28.4725 40.0749 28.8707 40.0749 29.4004L38.3411 29.8764L38.3429 29.8783Z" fill="white"/>
<path d="M52.152 26.1906C54.249 25.635 56.143 25.1701 58.0165 24.6275C60.1973 23.9959 60.2346 23.9681 61.6723 25.735C65.3877 30.3005 69.0807 34.8863 72.8166 39.4369C73.4181 40.1703 73.5094 40.75 73.0214 41.602C70.172 46.573 67.3785 51.5737 64.5701 56.5689C64.2535 57.1319 63.9537 57.6912 63.0411 57.2375C64.1176 55.0261 65.1791 52.8461 66.2425 50.668C67.7324 47.6139 69.2055 44.5505 70.7326 41.5149C71.0511 40.8815 71.0213 40.4796 70.5166 39.9703C67.8273 37.2644 65.1735 34.5233 62.4992 31.8025C61.6201 30.9079 61.3594 30.9839 60.8584 32.2822C58.808 37.5829 56.7632 42.8855 54.7127 48.1862C53.6344 50.9736 52.53 53.7518 51.4778 56.5503C51.2115 57.256 50.8763 57.6264 49.9656 57.2801C51.2189 51.3255 52.4667 45.4155 53.707 39.5036C54.3514 36.4365 54.9846 33.3675 55.6159 30.2986C55.804 29.38 55.5023 29.0799 54.5321 29.2725C51.9155 29.793 49.3063 30.3412 46.6934 30.8765C44.589 31.308 42.4901 31.7803 40.3726 32.147C39.3744 32.3192 39.0485 32.7526 39.0541 33.762C39.0914 41.1556 39.0802 48.5474 39.0504 55.941C39.0485 56.4374 39.4638 57.2597 38.5345 57.3319C38.3632 57.3449 37.9665 56.4355 37.9348 55.9354C37.4432 48.3437 36.9944 40.7482 36.5344 33.1545C36.5269 33.0434 36.5176 32.9341 36.5046 32.823C36.3382 31.3586 36.9689 30.364 38.3967 29.8393L52.152 26.1943V26.1906Z" fill="white"/>
<path d="M20.2493 59.7803V83.4039H16.0106V62.8196C14.4797 69.7594 12.9805 76.5493 11.4646 83.415H8.73254C7.23335 76.4844 5.72485 69.5168 4.21821 62.5511L4.0953 62.5825C4.2089 69.5002 4.3225 76.4159 4.43797 83.4132H0V59.7822C2.16218 59.7822 4.27222 59.747 6.37853 59.8266C6.65043 59.8359 7.0527 60.4063 7.13278 60.773C8.18128 65.5589 9.18136 70.3558 10.228 75.3121C10.3639 74.4212 10.4515 73.6378 10.6079 72.8673C11.4385 68.7463 12.2747 64.6254 13.1556 60.5156C13.2171 60.2322 13.6342 59.8229 13.8968 59.8155C15.9696 59.7581 18.0443 59.784 20.2493 59.784V59.7803Z" fill="white"/>
<path d="M80.7438 59.8471H85.2749V83.4873C83.8744 83.4873 82.5112 83.5299 81.1535 83.4521C80.8798 83.4373 80.5092 83.0113 80.39 82.6983C78.3917 77.4624 76.425 72.2136 74.4509 66.9684C74.4267 66.9054 74.382 66.8517 74.2684 66.6665C74.4621 72.308 74.6502 77.8217 74.8402 83.417H70.3594V59.7841C71.7524 59.7841 73.0821 59.7415 74.4063 59.8193C74.6763 59.836 75.0413 60.2582 75.1568 60.5675C77.2072 66.0201 79.2241 71.4857 81.2504 76.9475C81.3007 77.0828 81.364 77.2105 81.3956 77.2828C81.1815 71.545 80.9636 65.7534 80.7438 59.8489V59.8471Z" fill="white"/>
<path d="M54.1137 71.2562C56.4137 71.9359 56.9817 73.6046 57.0153 75.6642C57.0432 77.3589 57.1121 79.0572 57.2555 80.7464C57.33 81.6057 57.6112 82.4484 57.8179 83.3893H52.8753C52.7859 81.865 52.7021 80.3296 52.6052 78.7942C52.5289 77.5848 52.4711 76.3717 52.3408 75.166C52.2421 74.2473 51.6424 73.6787 50.7429 73.5658C49.4001 73.3954 48.0443 73.3231 46.575 73.199V83.4171H42.1426V59.7787C43.0961 59.7787 44.0124 59.7657 44.9268 59.7805C47.264 59.8194 49.605 59.7898 51.9367 59.9343C56.3746 60.2084 57.6689 63.3255 57.1475 67.0426C56.883 68.9262 56.1623 70.5283 54.1137 71.2562V71.2562ZM46.6085 69.8097C47.6868 69.8097 48.6478 69.8245 49.6087 69.806C51.3221 69.7726 52.1061 69.1392 52.5121 67.4946C52.9833 65.585 52.3054 63.6774 50.8714 63.4662C49.4802 63.2606 48.035 63.4218 46.6085 63.4218V69.8115V69.8097Z" fill="white"/>
<path d="M39.5926 83.4301H34.959C34.5717 81.4891 34.1824 79.5462 33.7858 77.5589H28.6084C28.2695 79.274 27.9063 80.9575 27.6158 82.6541C27.5078 83.2875 27.2601 83.5283 26.6046 83.5042C25.3493 83.4597 24.0923 83.4912 22.6992 83.4912C23.1592 81.5187 23.5838 79.6629 24.0271 77.8127C25.3363 72.3286 26.6604 66.8501 27.9622 61.3641C28.3365 59.7861 28.3123 59.7806 29.9549 59.7806C31.1803 59.7806 32.4076 59.7398 33.6275 59.8084C33.9236 59.825 34.3947 60.1491 34.4543 60.4066C36.1919 67.9095 37.8885 75.4216 39.5851 82.9337C39.6168 83.0726 39.5888 83.2245 39.5888 83.4301H39.5926ZM31.2753 63.2477C30.6943 66.5574 30.0536 70.2042 29.3981 73.9344H33.0185C32.4095 70.2005 31.8154 66.5556 31.2753 63.2477Z" fill="white"/>
<path d="M65.8775 83.4249H61.5605V59.8477H65.8775V83.4249Z" fill="white"/>
<path d="M93.9991 83.4465H89.7734V59.834H93.9991V83.4465Z" fill="white"/>
<path d="M24.2705 94.1352C24.2705 94.1957 24.2687 94.2491 24.2652 94.2954C24.2616 94.3381 24.2545 94.3754 24.2438 94.4075C24.2367 94.4359 24.226 94.4626 24.2118 94.4875C24.2011 94.5089 24.1726 94.5427 24.1264 94.589C24.0837 94.6317 24.0089 94.6868 23.9022 94.7544C23.7954 94.8185 23.6744 94.8772 23.5392 94.9306C23.4075 94.9804 23.2634 95.0214 23.1068 95.0534C22.9502 95.0854 22.7883 95.1014 22.621 95.1014C22.2758 95.1014 21.9698 95.0445 21.7029 94.9306C21.436 94.8167 21.2118 94.6512 21.0303 94.4342C20.8523 94.2135 20.7153 93.9448 20.6192 93.6281C20.5267 93.3078 20.4804 92.9395 20.4804 92.5231C20.4804 92.0498 20.5374 91.6441 20.6513 91.306C20.7687 90.9644 20.9271 90.685 21.1263 90.4679C21.3292 90.2508 21.5659 90.0907 21.8363 89.9875C22.1103 89.8807 22.4057 89.8273 22.7225 89.8273C22.8755 89.8273 23.0232 89.8416 23.1655 89.87C23.3114 89.8985 23.4449 89.9359 23.5659 89.9821C23.6869 90.0284 23.7936 90.0818 23.8862 90.1423C23.9823 90.2028 24.0517 90.2544 24.0944 90.2971C24.1371 90.3398 24.1655 90.3736 24.1798 90.3985C24.1976 90.4234 24.2118 90.4537 24.2225 90.4893C24.2331 90.5213 24.2403 90.5587 24.2438 90.6014C24.2474 90.6441 24.2492 90.6975 24.2492 90.7615C24.2492 90.9003 24.2331 90.9982 24.2011 91.0551C24.1691 91.1085 24.1299 91.1352 24.0837 91.1352C24.0303 91.1352 23.968 91.1067 23.8968 91.0498C23.8292 90.9893 23.742 90.9234 23.6353 90.8523C23.5285 90.7811 23.3986 90.717 23.2456 90.6601C23.0961 90.5996 22.9182 90.5693 22.7118 90.5693C22.2883 90.5693 21.9627 90.733 21.7349 91.0604C21.5107 91.3843 21.3986 91.8558 21.3986 92.4751C21.3986 92.7847 21.4271 93.0569 21.484 93.2918C21.5445 93.5231 21.6317 93.7171 21.7456 93.8737C21.8595 94.0302 21.9982 94.1477 22.1619 94.226C22.3292 94.3007 22.5196 94.3381 22.7331 94.3381C22.936 94.3381 23.1139 94.306 23.2669 94.242C23.42 94.1779 23.5516 94.1085 23.662 94.0338C23.7758 93.9555 23.8702 93.8861 23.9449 93.8256C24.0232 93.7616 24.0837 93.7295 24.1264 93.7295C24.1513 93.7295 24.1726 93.7366 24.1904 93.7509C24.2082 93.7651 24.2225 93.79 24.2331 93.8256C24.2474 93.8576 24.2563 93.9003 24.2598 93.9537C24.267 94.0035 24.2705 94.064 24.2705 94.1352ZM29.8115 92.411C29.8115 92.8025 29.7599 93.1637 29.6567 93.4946C29.5535 93.822 29.3987 94.105 29.1923 94.3434C28.9894 94.5818 28.7332 94.7687 28.4236 94.9039C28.1175 95.0356 27.7617 95.1014 27.356 95.1014C26.9609 95.1014 26.6157 95.0427 26.3204 94.9253C26.0285 94.8078 25.7848 94.637 25.589 94.4128C25.3933 94.1886 25.2474 93.9164 25.1513 93.5961C25.0552 93.2758 25.0072 92.9128 25.0072 92.5071C25.0072 92.1156 25.057 91.7562 25.1566 91.4288C25.2599 91.0978 25.4129 90.8131 25.6157 90.5747C25.8221 90.3362 26.0784 90.1512 26.3844 90.0195C26.6905 89.8878 27.0481 89.822 27.4574 89.822C27.8524 89.822 28.1958 89.8807 28.4876 89.9982C28.783 90.1156 29.0286 90.2864 29.2243 90.5106C29.42 90.7348 29.566 91.0071 29.662 91.3274C29.7617 91.6476 29.8115 92.0089 29.8115 92.411ZM28.8827 92.4697C28.8827 92.2099 28.8578 91.9644 28.8079 91.7331C28.7617 91.5017 28.6834 91.2989 28.5731 91.1245C28.4627 90.9501 28.3133 90.8131 28.1247 90.7135C27.936 90.6103 27.7012 90.5587 27.42 90.5587C27.1602 90.5587 26.936 90.6049 26.7474 90.6975C26.5624 90.79 26.4093 90.9217 26.2883 91.0925C26.1673 91.2597 26.0766 91.459 26.0161 91.6904C25.9591 91.9217 25.9307 92.1743 25.9307 92.4484C25.9307 92.7117 25.9538 92.959 26.0001 93.1904C26.0499 93.4217 26.13 93.6245 26.2403 93.7989C26.3542 93.9697 26.5054 94.1068 26.694 94.21C26.8826 94.3096 27.1175 94.3594 27.3987 94.3594C27.6549 94.3594 27.8773 94.3132 28.0659 94.2206C28.2546 94.1281 28.4094 93.9982 28.5304 93.8309C28.6514 93.6637 28.7403 93.4644 28.7973 93.2331C28.8542 93.0018 28.8827 92.7473 28.8827 92.4697ZM35.2457 94.8665C35.2457 94.895 35.2386 94.9199 35.2244 94.9413C35.2102 94.9591 35.187 94.9751 35.155 94.9893C35.123 95.0036 35.0785 95.0142 35.0215 95.0214C34.9646 95.0285 34.8934 95.032 34.808 95.032C34.719 95.032 34.6461 95.0285 34.5891 95.0214C34.5322 95.0142 34.4877 95.0036 34.4557 94.9893C34.4237 94.9751 34.4005 94.9591 34.3863 94.9413C34.3721 94.9199 34.3649 94.895 34.3649 94.8665V92.0533C34.3649 91.7793 34.3436 91.5587 34.3009 91.3914C34.2582 91.2242 34.1959 91.08 34.1141 90.959C34.0322 90.838 33.9254 90.7455 33.7938 90.6814C33.6656 90.6174 33.5162 90.5854 33.3454 90.5854C33.1247 90.5854 32.9041 90.6636 32.6834 90.8202C32.4628 90.9768 32.2315 91.2064 31.9895 91.5089V94.8665C31.9895 94.895 31.9824 94.9199 31.9681 94.9413C31.9539 94.9591 31.9308 94.9751 31.8987 94.9893C31.8667 95.0036 31.8222 95.0142 31.7653 95.0214C31.7083 95.0285 31.6354 95.032 31.5464 95.032C31.461 95.032 31.3898 95.0285 31.3329 95.0214C31.2759 95.0142 31.2297 95.0036 31.1941 94.9893C31.1621 94.9751 31.1389 94.9591 31.1247 94.9413C31.114 94.9199 31.1087 94.895 31.1087 94.8665V90.0622C31.1087 90.0337 31.114 90.0106 31.1247 89.9928C31.1354 89.9715 31.1567 89.9537 31.1888 89.9394C31.2208 89.9216 31.2617 89.911 31.3115 89.9074C31.3614 89.9003 31.4272 89.8967 31.509 89.8967C31.5873 89.8967 31.6514 89.9003 31.7012 89.9074C31.7546 89.911 31.7955 89.9216 31.824 89.9394C31.8525 89.9537 31.872 89.9715 31.8827 89.9928C31.8969 90.0106 31.9041 90.0337 31.9041 90.0622V90.6975C32.1745 90.395 32.4432 90.1743 32.7101 90.0355C32.9806 89.8932 33.2528 89.822 33.5269 89.822C33.8471 89.822 34.1158 89.8772 34.3329 89.9875C34.5536 90.0942 34.7315 90.2384 34.8667 90.4199C35.002 90.6014 35.0981 90.8149 35.155 91.0604C35.2155 91.3024 35.2457 91.5943 35.2457 91.9359V94.8665ZM39.8686 93.5587C39.8686 93.8043 39.8223 94.0231 39.7298 94.2153C39.6408 94.4075 39.5127 94.5694 39.3454 94.7011C39.1782 94.8327 38.9789 94.9324 38.7476 95C38.5162 95.0676 38.2618 95.1014 37.9842 95.1014C37.8134 95.1014 37.6497 95.0872 37.4931 95.0587C37.3401 95.0338 37.2013 95.0018 37.0767 94.9626C36.9557 94.9199 36.8525 94.8772 36.7671 94.8345C36.6817 94.7883 36.6194 94.7473 36.5803 94.7117C36.5411 94.6762 36.5127 94.6263 36.4949 94.5623C36.4771 94.4982 36.4682 94.411 36.4682 94.3007C36.4682 94.2331 36.4717 94.1761 36.4789 94.1299C36.486 94.0836 36.4949 94.0463 36.5055 94.0178C36.5162 93.9893 36.5305 93.9697 36.5482 93.9591C36.5696 93.9448 36.5927 93.9377 36.6176 93.9377C36.6568 93.9377 36.7137 93.9626 36.7885 94.0124C36.8668 94.0587 36.9611 94.1103 37.0714 94.1672C37.1853 94.2242 37.3187 94.2776 37.4717 94.3274C37.6248 94.3737 37.8009 94.3968 38.0002 94.3968C38.1497 94.3968 38.2849 94.3808 38.4059 94.3487C38.5269 94.3167 38.6319 94.2705 38.7209 94.21C38.8098 94.1459 38.8775 94.0658 38.9237 93.9697C38.9735 93.8737 38.9985 93.7598 38.9985 93.6281C38.9985 93.4929 38.9629 93.379 38.8917 93.2865C38.8241 93.1939 38.7333 93.1121 38.6194 93.0409C38.5056 92.9697 38.3775 92.9074 38.2351 92.8541C38.0928 92.7971 37.9451 92.7384 37.792 92.6779C37.6426 92.6174 37.4949 92.5498 37.349 92.4751C37.2066 92.3968 37.0785 92.3025 36.9646 92.1921C36.8507 92.0818 36.7582 91.9501 36.687 91.7971C36.6194 91.6441 36.5856 91.4608 36.5856 91.2473C36.5856 91.0587 36.6212 90.879 36.6924 90.7081C36.7671 90.5338 36.8774 90.3825 37.0233 90.2544C37.1693 90.1227 37.3507 90.0177 37.5678 89.9394C37.7885 89.8611 38.0447 89.822 38.3365 89.822C38.4646 89.822 38.5928 89.8327 38.7209 89.854C38.849 89.8754 38.9646 89.9021 39.0679 89.9341C39.1711 89.9661 39.2582 90.0017 39.3294 90.0409C39.4042 90.0765 39.4593 90.1085 39.4949 90.137C39.534 90.1654 39.559 90.1903 39.5696 90.2117C39.5839 90.233 39.5928 90.2579 39.5963 90.2864C39.6034 90.3113 39.6088 90.3434 39.6123 90.3825C39.6195 90.4217 39.623 90.4697 39.623 90.5266C39.623 90.5871 39.6195 90.6405 39.6123 90.6868C39.6088 90.7295 39.5999 90.7651 39.5857 90.7935C39.575 90.822 39.5607 90.8434 39.5429 90.8576C39.5252 90.8683 39.5056 90.8736 39.4842 90.8736C39.4522 90.8736 39.4059 90.854 39.3454 90.8149C39.2849 90.7757 39.2066 90.7348 39.1106 90.6921C39.0145 90.6459 38.9006 90.6031 38.7689 90.564C38.6408 90.5249 38.4931 90.5053 38.3258 90.5053C38.1764 90.5053 38.0447 90.5231 37.9308 90.5587C37.8169 90.5907 37.7226 90.6387 37.6479 90.7028C37.5767 90.7633 37.5216 90.8362 37.4824 90.9217C37.4468 91.0071 37.429 91.0996 37.429 91.1992C37.429 91.338 37.4646 91.4555 37.5358 91.5516C37.607 91.6441 37.6995 91.7259 37.8134 91.7971C37.9273 91.8683 38.0572 91.9323 38.2031 91.9893C38.349 92.0462 38.4967 92.1049 38.6461 92.1654C38.7992 92.2259 38.9486 92.2936 39.0945 92.3683C39.244 92.443 39.3757 92.5338 39.4896 92.6405C39.6034 92.7473 39.6942 92.8754 39.7618 93.0249C39.833 93.1744 39.8686 93.3523 39.8686 93.5587ZM43.5038 94.5142C43.5038 94.6174 43.4967 94.6993 43.4825 94.7598C43.4683 94.8203 43.4469 94.8648 43.4184 94.8932C43.39 94.9217 43.3473 94.9484 43.2903 94.9733C43.2334 94.9982 43.1675 95.0178 43.0928 95.032C43.0216 95.0498 42.9451 95.0641 42.8633 95.0747C42.7814 95.0854 42.6996 95.0907 42.6177 95.0907C42.3686 95.0907 42.1551 95.0587 41.9771 94.9947C41.7992 94.927 41.6533 94.8274 41.5394 94.6957C41.4255 94.5605 41.3419 94.3915 41.2885 94.1886C41.2387 93.9822 41.2138 93.7402 41.2138 93.4626V90.6548H40.5412C40.4878 90.6548 40.4451 90.6263 40.4131 90.5693C40.381 90.5124 40.365 90.4199 40.365 90.2918C40.365 90.2241 40.3686 90.1672 40.3757 90.1209C40.3864 90.0747 40.3988 90.0373 40.4131 90.0088C40.4273 89.9768 40.4451 89.9555 40.4664 89.9448C40.4914 89.9305 40.518 89.9234 40.5465 89.9234H41.2138V88.7811C41.2138 88.7562 41.2191 88.733 41.2298 88.7117C41.244 88.6903 41.2672 88.6725 41.2992 88.6583C41.3348 88.6405 41.381 88.628 41.438 88.6209C41.4949 88.6138 41.5661 88.6102 41.6515 88.6102C41.7405 88.6102 41.8134 88.6138 41.8704 88.6209C41.9273 88.628 41.9718 88.6405 42.0038 88.6583C42.0359 88.6725 42.059 88.6903 42.0732 88.7117C42.0875 88.733 42.0946 88.7562 42.0946 88.7811V89.9234H43.3277C43.3562 89.9234 43.3811 89.9305 43.4024 89.9448C43.4238 89.9555 43.4416 89.9768 43.4558 90.0088C43.4736 90.0373 43.4861 90.0747 43.4932 90.1209C43.5003 90.1672 43.5038 90.2241 43.5038 90.2918C43.5038 90.4199 43.4878 90.5124 43.4558 90.5693C43.4238 90.6263 43.3811 90.6548 43.3277 90.6548H42.0946V93.3345C42.0946 93.6655 42.1426 93.9164 42.2387 94.0872C42.3384 94.2544 42.5145 94.3381 42.7672 94.3381C42.849 94.3381 42.922 94.331 42.986 94.3167C43.0501 94.2989 43.107 94.2811 43.1569 94.2633C43.2067 94.2455 43.2494 94.2295 43.285 94.2153C43.3206 94.1975 43.3526 94.1886 43.3811 94.1886C43.3989 94.1886 43.4149 94.1939 43.4291 94.2046C43.4469 94.2117 43.4594 94.2277 43.4665 94.2527C43.4772 94.2776 43.4861 94.3114 43.4932 94.3541C43.5003 94.3968 43.5038 94.4502 43.5038 94.5142ZM47.4754 90.3772C47.4754 90.4555 47.4737 90.5213 47.4701 90.5747C47.4665 90.6281 47.4594 90.6708 47.4487 90.7028C47.4381 90.7313 47.4238 90.7544 47.406 90.7722C47.3918 90.7864 47.3704 90.7935 47.342 90.7935C47.3135 90.7935 47.2779 90.7864 47.2352 90.7722C47.1961 90.7544 47.1498 90.7384 47.0964 90.7241C47.0466 90.7064 46.9897 90.6903 46.9256 90.6761C46.8615 90.6619 46.7921 90.6548 46.7174 90.6548C46.6284 90.6548 46.5413 90.6725 46.4558 90.7081C46.3704 90.7437 46.2797 90.8024 46.1836 90.8843C46.0911 90.9661 45.9932 91.0747 45.89 91.2099C45.7868 91.3452 45.6729 91.5106 45.5484 91.7064V94.8665C45.5484 94.895 45.5412 94.9199 45.527 94.9413C45.5128 94.9591 45.4896 94.9751 45.4576 94.9893C45.4256 95.0036 45.3811 95.0142 45.3242 95.0214C45.2672 95.0285 45.1943 95.032 45.1053 95.032C45.0199 95.032 44.9487 95.0285 44.8918 95.0214C44.8348 95.0142 44.7886 95.0036 44.753 94.9893C44.7209 94.9751 44.6978 94.9591 44.6836 94.9413C44.6729 94.9199 44.6676 94.895 44.6676 94.8665V90.0622C44.6676 90.0337 44.6729 90.0106 44.6836 89.9928C44.6943 89.9715 44.7156 89.9537 44.7476 89.9394C44.7797 89.9216 44.8206 89.911 44.8704 89.9074C44.9202 89.9003 44.9861 89.8967 45.0679 89.8967C45.1462 89.8967 45.2103 89.9003 45.2601 89.9074C45.3135 89.911 45.3544 89.9216 45.3829 89.9394C45.4113 89.9537 45.4309 89.9715 45.4416 89.9928C45.4558 90.0106 45.4629 90.0337 45.4629 90.0622V90.7615C45.5946 90.5693 45.7174 90.4128 45.8313 90.2918C45.9487 90.1708 46.059 90.0765 46.1622 90.0088C46.2655 89.9377 46.3669 89.8896 46.4665 89.8647C46.5697 89.8362 46.6729 89.822 46.7761 89.822C46.8224 89.822 46.874 89.8256 46.9309 89.8327C46.9914 89.8362 47.0537 89.8451 47.1178 89.8594C47.1818 89.8736 47.2388 89.8896 47.2886 89.9074C47.342 89.9252 47.3793 89.943 47.4007 89.9608C47.422 89.9786 47.4363 89.9964 47.4434 90.0142C47.4505 90.0284 47.4559 90.048 47.4594 90.0729C47.4665 90.0978 47.4701 90.1352 47.4701 90.185C47.4737 90.2313 47.4754 90.2953 47.4754 90.3772ZM52.5947 94.8665C52.5947 94.895 52.5876 94.9199 52.5734 94.9413C52.5627 94.9591 52.5413 94.9751 52.5093 94.9893C52.4773 95.0036 52.4346 95.0142 52.3812 95.0214C52.3314 95.0285 52.2691 95.032 52.1944 95.032C52.1125 95.032 52.0449 95.0285 51.9915 95.0214C51.9417 95.0142 51.9008 95.0036 51.8687 94.9893C51.8403 94.9751 51.8207 94.9591 51.81 94.9413C51.7993 94.9199 51.794 94.895 51.794 94.8665V94.2313C51.52 94.5338 51.2495 94.7544 50.9826 94.8932C50.7157 95.032 50.4452 95.1014 50.1712 95.1014C49.8509 95.1014 49.5804 95.048 49.3598 94.9413C49.1427 94.8345 48.9666 94.6904 48.8313 94.5089C48.6961 94.3238 48.5982 94.1103 48.5377 93.8683C48.4808 93.6228 48.4523 93.3256 48.4523 92.9768V90.0622C48.4523 90.0337 48.4576 90.0106 48.4683 89.9928C48.4826 89.9715 48.5075 89.9537 48.5431 89.9394C48.5786 89.9216 48.6249 89.911 48.6819 89.9074C48.7388 89.9003 48.81 89.8967 48.8954 89.8967C48.9808 89.8967 49.052 89.9003 49.1089 89.9074C49.1658 89.911 49.2103 89.9216 49.2424 89.9394C49.2779 89.9537 49.3029 89.9715 49.3171 89.9928C49.3313 90.0106 49.3384 90.0337 49.3384 90.0622V92.8594C49.3384 93.1405 49.358 93.3665 49.3972 93.5373C49.4399 93.7046 49.5021 93.8487 49.584 93.9697C49.6694 94.0872 49.7762 94.1797 49.9043 94.2473C50.0324 94.3114 50.1819 94.3434 50.3527 94.3434C50.5733 94.3434 50.7922 94.2651 51.0093 94.1085C51.2299 93.9519 51.463 93.7224 51.7086 93.4199V90.0622C51.7086 90.0337 51.7139 90.0106 51.7246 89.9928C51.7388 89.9715 51.7637 89.9537 51.7993 89.9394C51.8349 89.9216 51.8794 89.911 51.9328 89.9074C51.9897 89.9003 52.0627 89.8967 52.1516 89.8967C52.2371 89.8967 52.3082 89.9003 52.3652 89.9074C52.4221 89.911 52.4666 89.9216 52.4986 89.9394C52.5307 89.9537 52.5538 89.9715 52.568 89.9928C52.5858 90.0106 52.5947 90.0337 52.5947 90.0622V94.8665ZM57.6766 94.1352C57.6766 94.1957 57.6748 94.2491 57.6713 94.2954C57.6677 94.3381 57.6606 94.3754 57.6499 94.4075C57.6428 94.4359 57.6321 94.4626 57.6179 94.4875C57.6072 94.5089 57.5788 94.5427 57.5325 94.589C57.4898 94.6317 57.4115 94.6886 57.2976 94.7598C57.1873 94.8274 57.0485 94.8932 56.8812 94.9573C56.714 95.0178 56.5254 95.0605 56.3154 95.0854L56.4542 95.395C56.5289 95.5552 56.5823 95.6868 56.6143 95.79C56.6499 95.8968 56.6677 95.9965 56.6677 96.089C56.6677 96.2242 56.6428 96.3452 56.593 96.452C56.5432 96.5587 56.472 96.6477 56.3795 96.7189C56.2869 96.7936 56.1766 96.8506 56.0485 96.8897C55.9204 96.9288 55.7762 96.9484 55.6161 96.9484C55.4951 96.9484 55.3777 96.9395 55.2638 96.9217C55.1535 96.9075 55.0574 96.8915 54.9755 96.8737C54.8972 96.8559 54.8421 96.8399 54.81 96.8256C54.7816 96.8114 54.7602 96.7936 54.746 96.7723C54.7353 96.7509 54.7264 96.7242 54.7193 96.6922C54.7157 96.6602 54.714 96.6175 54.714 96.5641C54.714 96.4538 54.7246 96.379 54.746 96.3399C54.7709 96.3043 54.81 96.2865 54.8634 96.2865H55.5254C55.6392 96.2865 55.7282 96.2616 55.7923 96.2118C55.8563 96.1655 55.8883 96.0943 55.8883 95.9982C55.8883 95.952 55.8777 95.8932 55.8563 95.8221C55.835 95.7545 55.8065 95.6815 55.7709 95.6032L55.52 95.048C55.157 94.9804 54.8545 94.8381 54.6125 94.621C54.3705 94.4003 54.189 94.1139 54.068 93.7616C53.947 93.4092 53.8865 92.9964 53.8865 92.5231C53.8865 92.0498 53.9435 91.6441 54.0574 91.306C54.1748 90.9644 54.3332 90.685 54.5325 90.4679C54.7353 90.2508 54.972 90.0907 55.2424 89.9875C55.5165 89.8807 55.8118 89.8273 56.1286 89.8273C56.2816 89.8273 56.4293 89.8416 56.5716 89.87C56.7175 89.8985 56.851 89.9359 56.972 89.9821C57.093 90.0284 57.1998 90.0818 57.2923 90.1423C57.3884 90.2028 57.4578 90.2544 57.5005 90.2971C57.5432 90.3398 57.5716 90.3736 57.5859 90.3985C57.6037 90.4234 57.6179 90.4537 57.6286 90.4893C57.6393 90.5213 57.6464 90.5587 57.6499 90.6014C57.6535 90.6441 57.6553 90.6975 57.6553 90.7615C57.6553 90.9003 57.6393 90.9982 57.6072 91.0551C57.5752 91.1085 57.5361 91.1352 57.4898 91.1352C57.4364 91.1352 57.3741 91.1067 57.303 91.0498C57.2353 90.9893 57.1481 90.9234 57.0414 90.8523C56.9346 90.7811 56.8047 90.717 56.6517 90.6601C56.5022 90.5996 56.3243 90.5693 56.1179 90.5693C55.6944 90.5693 55.3688 90.733 55.141 91.0604C54.9168 91.3843 54.8047 91.8558 54.8047 92.4751C54.8047 92.7847 54.8332 93.0569 54.8901 93.2918C54.9506 93.5231 55.0378 93.7171 55.1517 93.8737C55.2656 94.0302 55.4044 94.1477 55.5681 94.226C55.7353 94.3007 55.9257 94.3381 56.1392 94.3381C56.3421 94.3381 56.52 94.306 56.6731 94.242C56.8261 94.1779 56.9578 94.1085 57.0681 94.0338C57.182 93.9555 57.2763 93.8861 57.351 93.8256C57.4293 93.7616 57.4898 93.7295 57.5325 93.7295C57.5574 93.7295 57.5788 93.7366 57.5966 93.7509C57.6143 93.7651 57.6286 93.79 57.6393 93.8256C57.6535 93.8576 57.6624 93.9003 57.6659 93.9537C57.6731 94.0035 57.6766 94.064 57.6766 94.1352ZM63.2176 92.411C63.2176 92.8025 63.166 93.1637 63.0628 93.4946C62.9596 93.822 62.8048 94.105 62.5984 94.3434C62.3955 94.5818 62.1393 94.7687 61.8297 94.9039C61.5236 95.0356 61.1678 95.1014 60.7621 95.1014C60.367 95.1014 60.0218 95.0427 59.7265 94.9253C59.4347 94.8078 59.1909 94.637 58.9951 94.4128C58.7994 94.1886 58.6535 93.9164 58.5574 93.5961C58.4613 93.2758 58.4133 92.9128 58.4133 92.5071C58.4133 92.1156 58.4631 91.7562 58.5628 91.4288C58.666 91.0978 58.819 90.8131 59.0218 90.5747C59.2282 90.3362 59.4845 90.1512 59.7905 90.0195C60.0966 89.8878 60.4542 89.822 60.8635 89.822C61.2585 89.822 61.6019 89.8807 61.8938 89.9982C62.1891 90.1156 62.4347 90.2864 62.6304 90.5106C62.8262 90.7348 62.9721 91.0071 63.0681 91.3274C63.1678 91.6476 63.2176 92.0089 63.2176 92.411ZM62.2888 92.4697C62.2888 92.2099 62.2639 91.9644 62.214 91.7331C62.1678 91.5017 62.0895 91.2989 61.9792 91.1245C61.8688 90.9501 61.7194 90.8131 61.5308 90.7135C61.3421 90.6103 61.1073 90.5587 60.8261 90.5587C60.5663 90.5587 60.3421 90.6049 60.1535 90.6975C59.9685 90.79 59.8154 90.9217 59.6944 91.0925C59.5734 91.2597 59.4827 91.459 59.4222 91.6904C59.3653 91.9217 59.3368 92.1743 59.3368 92.4484C59.3368 92.7117 59.3599 92.959 59.4062 93.1904C59.456 93.4217 59.5361 93.6245 59.6464 93.7989C59.7603 93.9697 59.9115 94.1068 60.1001 94.21C60.2888 94.3096 60.5236 94.3594 60.8048 94.3594C61.061 94.3594 61.2834 94.3132 61.472 94.2206C61.6607 94.1281 61.8155 93.9982 61.9365 93.8309C62.0575 93.6637 62.1464 93.4644 62.2034 93.2331C62.2603 93.0018 62.2888 92.7473 62.2888 92.4697ZM62.5931 87.9857C62.5931 88.3629 62.5005 88.6512 62.3155 88.8505C62.1304 89.0497 61.8795 89.1494 61.5628 89.1494C61.4311 89.1494 61.3137 89.1334 61.2105 89.1014C61.1073 89.0658 61.013 89.0213 60.9276 88.9679C60.8421 88.9145 60.7638 88.8576 60.6927 88.7971C60.6215 88.7366 60.5503 88.6796 60.4791 88.6263C60.4115 88.5729 60.3439 88.5302 60.2763 88.4981C60.2087 88.4626 60.1357 88.4448 60.0574 88.4448C59.9151 88.4448 59.8154 88.4964 59.7585 88.5996C59.7016 88.7028 59.6731 88.8398 59.6731 89.0106C59.6731 89.0355 59.6695 89.0586 59.6624 89.08C59.6553 89.0978 59.6393 89.112 59.6144 89.1227C59.593 89.1334 59.5592 89.1405 59.5129 89.1441C59.4702 89.1476 59.4151 89.1494 59.3475 89.1494C59.2905 89.1494 59.2425 89.1476 59.2033 89.1441C59.1642 89.1369 59.1322 89.1263 59.1072 89.112C59.0859 89.0942 59.0699 89.0711 59.0592 89.0426C59.0485 89.0106 59.0432 88.9715 59.0432 88.9252C59.0432 88.5729 59.1322 88.2917 59.3101 88.0818C59.488 87.8718 59.7425 87.7668 60.0734 87.7668C60.2656 87.7668 60.4311 87.8042 60.5699 87.8789C60.7087 87.9501 60.8332 88.0302 60.9436 88.1191C61.0574 88.2045 61.1624 88.2846 61.2585 88.3593C61.3582 88.4341 61.4649 88.4714 61.5788 88.4714C61.7069 88.4714 61.803 88.4252 61.8671 88.3327C61.9347 88.2366 61.9685 88.096 61.9685 87.9109C61.9685 87.854 61.9863 87.8166 62.0219 87.7988C62.061 87.7775 62.1429 87.7668 62.2674 87.7668C62.3991 87.7668 62.4863 87.781 62.529 87.8095C62.5717 87.8344 62.5931 87.8932 62.5931 87.9857ZM68.6145 92.2562C68.6145 92.395 68.5789 92.4946 68.5077 92.5551C68.4401 92.6121 68.3618 92.6405 68.2728 92.6405H65.1233C65.1233 92.9074 65.15 93.1477 65.2034 93.3612C65.2568 93.5747 65.3458 93.758 65.4703 93.911C65.5949 94.064 65.7568 94.1815 65.9561 94.2633C66.1554 94.3452 66.3992 94.3861 66.6874 94.3861C66.9152 94.3861 67.118 94.3683 67.296 94.3327C67.4739 94.2936 67.6269 94.2509 67.755 94.2046C67.8867 94.1584 67.9935 94.1174 68.0753 94.0818C68.1607 94.0427 68.2248 94.0231 68.2675 94.0231C68.2924 94.0231 68.3138 94.0302 68.3316 94.0445C68.3529 94.0551 68.3689 94.0729 68.3796 94.0979C68.3903 94.1228 68.3974 94.1584 68.401 94.2046C68.4081 94.2473 68.4116 94.3007 68.4116 94.3648C68.4116 94.411 68.4099 94.452 68.4063 94.4875C68.4027 94.5196 68.3974 94.5498 68.3903 94.5783C68.3867 94.6032 68.3778 94.6263 68.3636 94.6477C68.3529 94.669 68.3369 94.6904 68.3155 94.7117C68.2978 94.7295 68.2408 94.7616 68.1447 94.8078C68.0486 94.8505 67.9241 94.8932 67.7711 94.9359C67.618 94.9786 67.4401 95.016 67.2372 95.048C67.038 95.0836 66.8244 95.1014 66.5967 95.1014C66.2016 95.1014 65.8547 95.0463 65.5557 94.9359C65.2603 94.8256 65.0112 94.6619 64.8084 94.4448C64.6055 94.2277 64.4525 93.9555 64.3493 93.6281C64.2461 93.3007 64.1945 92.9199 64.1945 92.4857C64.1945 92.0729 64.2479 91.7028 64.3546 91.3754C64.4614 91.0444 64.6144 90.7651 64.8137 90.5373C65.0166 90.306 65.2603 90.1298 65.545 90.0088C65.8298 89.8843 66.1483 89.822 66.5006 89.822C66.8778 89.822 67.1981 89.8825 67.4614 90.0035C67.7284 90.1245 67.9472 90.2882 68.118 90.4946C68.2889 90.6975 68.4134 90.9377 68.4917 91.2153C68.5736 91.4893 68.6145 91.7829 68.6145 92.096V92.2562ZM67.7284 91.9946C67.739 91.532 67.6358 91.169 67.4187 90.9056C67.2052 90.6423 66.8867 90.5106 66.4632 90.5106C66.2461 90.5106 66.0557 90.5515 65.892 90.6334C65.7283 90.7152 65.5913 90.8238 65.481 90.959C65.3707 91.0943 65.2853 91.2526 65.2248 91.4341C65.1643 91.6121 65.1305 91.7989 65.1233 91.9946H67.7284ZM72.9757 93.5587C72.9757 93.8043 72.9295 94.0231 72.837 94.2153C72.748 94.4075 72.6199 94.5694 72.4526 94.7011C72.2853 94.8327 72.0861 94.9324 71.8547 95C71.6234 95.0676 71.369 95.1014 71.0914 95.1014C70.9206 95.1014 70.7569 95.0872 70.6003 95.0587C70.4472 95.0338 70.3085 95.0018 70.1839 94.9626C70.0629 94.9199 69.9597 94.8772 69.8743 94.8345C69.7889 94.7883 69.7266 94.7473 69.6875 94.7117C69.6483 94.6762 69.6198 94.6263 69.602 94.5623C69.5842 94.4982 69.5753 94.411 69.5753 94.3007C69.5753 94.2331 69.5789 94.1761 69.586 94.1299C69.5931 94.0836 69.602 94.0463 69.6127 94.0178C69.6234 93.9893 69.6376 93.9697 69.6554 93.9591C69.6768 93.9448 69.6999 93.9377 69.7248 93.9377C69.764 93.9377 69.8209 93.9626 69.8956 94.0124C69.9739 94.0587 70.0682 94.1103 70.1786 94.1672C70.2924 94.2242 70.4259 94.2776 70.5789 94.3274C70.7319 94.3737 70.9081 94.3968 71.1074 94.3968C71.2569 94.3968 71.3921 94.3808 71.5131 94.3487C71.6341 94.3167 71.7391 94.2705 71.828 94.21C71.917 94.1459 71.9846 94.0658 72.0309 93.9697C72.0807 93.8737 72.1056 93.7598 72.1056 93.6281C72.1056 93.4929 72.07 93.379 71.9989 93.2865C71.9313 93.1939 71.8405 93.1121 71.7266 93.0409C71.6127 92.9697 71.4846 92.9074 71.3423 92.8541C71.1999 92.7971 71.0522 92.7384 70.8992 92.6779C70.7497 92.6174 70.6021 92.5498 70.4561 92.4751C70.3138 92.3968 70.1857 92.3025 70.0718 92.1921C69.9579 92.0818 69.8654 91.9501 69.7942 91.7971C69.7266 91.6441 69.6928 91.4608 69.6928 91.2473C69.6928 91.0587 69.7284 90.879 69.7996 90.7081C69.8743 90.5338 69.9846 90.3825 70.1305 90.2544C70.2764 90.1227 70.4579 90.0177 70.675 89.9394C70.8957 89.8611 71.1519 89.822 71.4437 89.822C71.5718 89.822 71.6999 89.8327 71.828 89.854C71.9562 89.8754 72.0718 89.9021 72.175 89.9341C72.2782 89.9661 72.3654 90.0017 72.4366 90.0409C72.5113 90.0765 72.5665 90.1085 72.6021 90.137C72.6412 90.1654 72.6661 90.1903 72.6768 90.2117C72.691 90.233 72.6999 90.2579 72.7035 90.2864C72.7106 90.3113 72.716 90.3434 72.7195 90.3825C72.7266 90.4217 72.7302 90.4697 72.7302 90.5266C72.7302 90.5871 72.7266 90.6405 72.7195 90.6868C72.716 90.7295 72.7071 90.7651 72.6928 90.7935C72.6821 90.822 72.6679 90.8434 72.6501 90.8576C72.6323 90.8683 72.6128 90.8736 72.5914 90.8736C72.5594 90.8736 72.5131 90.854 72.4526 90.8149C72.3921 90.7757 72.3138 90.7348 72.2177 90.6921C72.1216 90.6459 72.0078 90.6031 71.8761 90.564C71.748 90.5249 71.6003 90.5053 71.433 90.5053C71.2836 90.5053 71.1519 90.5231 71.038 90.5587C70.9241 90.5907 70.8298 90.6387 70.7551 90.7028C70.6839 90.7633 70.6287 90.8362 70.5896 90.9217C70.554 91.0071 70.5362 91.0996 70.5362 91.1992C70.5362 91.338 70.5718 91.4555 70.643 91.5516C70.7142 91.6441 70.8067 91.7259 70.9206 91.7971C71.0344 91.8683 71.1643 91.9323 71.3102 91.9893C71.4562 92.0462 71.6038 92.1049 71.7533 92.1654C71.9063 92.2259 72.0558 92.2936 72.2017 92.3683C72.3512 92.443 72.4829 92.5338 72.5967 92.6405C72.7106 92.7473 72.8014 92.8754 72.869 93.0249C72.9402 93.1744 72.9757 93.3523 72.9757 93.5587Z" fill="white"/>
</svg>
